<svg width="140" height="47" viewBox="0 0 140 47" fill="none" xmlns="http://www.w3.org/2000/svg">
<path d="M13.2183 32.2754V5.67584L9.20067 5.21404V4.15191H23.3779V5.21404L19.3602 5.67584V32.7372C19.3602 37.2628 18.3751 40.6647 16.4047 42.9429C14.4652 45.2519 11.7867 46.4064 8.36944 46.4064C5.90652 46.4064 3.95157 46.0062 2.50461 45.2057C1.02685 44.4361 0.287977 43.297 0.287977 41.7884C0.287977 40.3107 0.826741 39.2639 1.90427 38.6482C2.48921 38.3403 3.08955 38.1864 3.70528 38.1864C4.29022 38.1864 4.89056 38.3249 5.50629 38.602C5.35236 39.6488 5.27539 40.6031 5.27539 41.4652C5.27539 42.3272 5.53708 43.1276 6.06045 43.8665C6.55303 44.6362 7.21494 45.021 8.04618 45.021C8.87742 45.021 9.55472 44.8671 10.0781 44.5592C10.6322 44.2513 11.0787 43.8665 11.4173 43.4047C11.756 42.9737 12.033 42.3734 12.2485 41.6037C12.4948 40.834 12.6796 40.126 12.8027 39.4794C12.9258 38.8637 13.0182 38.0479 13.0798 37.0319C13.1721 35.4926 13.2183 33.9071 13.2183 32.2754ZM38.3361 24.1939C34.7649 24.1939 32.5175 25.1329 31.5939 27.0109C31.1937 27.8113 30.9936 28.8119 30.9936 30.0126C30.9936 32.0753 31.7017 33.276 33.1178 33.6146C33.3333 33.6762 33.5642 33.707 33.8105 33.707C34.7957 33.707 35.7809 33.199 36.766 32.183C37.7512 31.1363 38.2746 29.7971 38.3361 28.1654V24.1939ZM30.9474 19.6683C30.2701 20.1301 29.562 20.361 28.8231 20.361C28.0842 20.361 27.4531 20.1147 26.9297 19.6221C26.4064 19.1296 26.1447 18.4061 26.1447 17.4517C26.1447 16.4665 26.4372 15.5891 27.0221 14.8194C27.607 14.0498 28.3613 13.4802 29.2849 13.1108C31.1013 12.3411 32.8254 11.9563 34.457 11.9563C38.0899 11.9563 40.5682 12.6028 41.892 13.8958C43.2158 15.1581 43.8777 17.113 43.8777 19.7607V33.6608L47.7568 33.9379V34.9538L38.9365 35.508L38.5209 31.6289C37.0739 34.2457 34.5802 35.5542 31.0397 35.5542C29.4388 35.5542 28.0534 35.077 26.8836 34.1226C25.7445 33.1374 25.1749 31.7674 25.1749 30.0126C25.2057 27.6728 26.3756 25.918 28.6846 24.7481C30.9936 23.5474 34.2108 22.9471 38.3361 22.9471V18.9756C38.3361 17.0976 38.0745 15.6507 37.5511 14.6347C37.0277 13.6188 36.0579 13.1108 34.6418 13.1108C33.2256 13.1108 32.1634 13.6957 31.4554 14.8656C30.9936 15.6353 30.7627 16.4511 30.7627 17.3131C30.7627 18.1752 30.8242 18.9602 30.9474 19.6683ZM66.9921 33.6608L67.2692 19.0218C67.2692 17.2054 67.0383 15.8816 66.5765 15.0503C66.1455 14.2191 65.2527 13.8035 63.8981 13.8035C62.5743 13.8035 61.2658 14.6193 59.9728 16.251C58.6798 17.8519 57.9871 19.2989 57.8947 20.5919V33.6608L61.3582 33.9379V35H48.982V33.9379L52.0299 33.6608V13.9882L48.2431 13.8035V12.8337L57.71 12.2795L57.4791 16.9899H57.9409C59.6957 13.7573 62.2818 12.141 65.6991 12.141C69.7937 12.141 72.1797 13.7573 72.857 16.9899C73.6882 15.4506 74.7965 14.2653 76.1819 13.434C77.5673 12.572 79.0758 12.141 80.7075 12.141C85.6334 12.141 88.0963 14.5116 88.0963 19.2527C88.0963 20.6073 87.9885 25.41 87.773 33.6608L90.9594 33.9379V35H79.7839V33.9379L82.0006 33.6608L82.2776 19.0218C82.2776 17.2054 82.0467 15.8816 81.5849 15.0503C81.1232 14.2191 80.2611 13.8035 78.9989 13.8035C77.7674 13.8035 76.5975 14.3884 75.4892 15.5583C74.3809 16.7282 73.5805 17.9904 73.0879 19.3451C73.0879 20.6997 72.9801 25.4716 72.7646 33.6608L75.951 33.9379V35H64.7755V33.9379L66.9921 33.6608ZM105.229 35H93.315V33.9379L96.3167 33.6608V13.9882L92.3452 13.7573V12.7875L102.228 12.1872V33.6608L105.229 33.9379V35ZM102.551 4.42899C102.551 5.35258 102.212 6.15303 101.535 6.83034C100.888 7.50764 100.073 7.84629 99.0874 7.84629C98.1023 7.84629 97.271 7.52303 96.5937 6.87652C95.9472 6.19921 95.624 5.38337 95.624 4.42899C95.624 3.44382 95.9626 2.61258 96.6399 1.93528C97.3172 1.22719 98.1331 0.873145 99.0874 0.873145C100.042 0.873145 100.858 1.22719 101.535 1.93528C102.212 2.64337 102.551 3.47461 102.551 4.42899ZM123.267 18.8833C123.267 15.1273 121.958 13.2493 119.342 13.2493C116.602 13.2493 114.939 15.6507 114.354 20.4534H123.175C123.236 19.8376 123.267 19.3143 123.267 18.8833ZM118.926 35.508C115.632 35.508 112.953 34.4304 110.891 32.2754C108.859 30.1203 107.843 27.2726 107.843 23.7321C107.843 20.1917 108.905 17.3439 111.029 15.1889C113.184 13.0338 115.909 11.9563 119.203 11.9563C122.497 11.9563 124.96 12.6644 126.592 14.0806C128.224 15.466 129.039 17.4055 129.039 19.8992C129.039 20.6073 128.978 21.3462 128.855 22.1158H114.216V23.7321C114.216 27.1802 114.647 29.7971 115.509 31.5827C116.371 33.3375 117.664 34.2149 119.388 34.2149C121.143 34.2149 122.728 33.8609 124.144 33.1528C125.591 32.4139 126.715 31.3826 127.515 30.0588C128.193 30.2743 128.531 30.5975 128.531 31.0285C128.531 31.7982 127.808 32.691 126.361 33.707C125.653 34.1996 124.637 34.6306 123.313 35C122.02 35.3387 120.558 35.508 118.926 35.508Z" fill="white"/>
<path d="M139.713 32.2754C139.713 33.1374 139.39 33.9071 138.743 34.5844C138.128 35.2309 137.358 35.5542 136.434 35.5542C135.511 35.5542 134.726 35.2309 134.079 34.5844C133.463 33.9379 133.155 33.1682 133.155 32.2754C133.155 31.3518 133.479 30.5667 134.125 29.9202C134.772 29.2737 135.541 28.9504 136.434 28.9504C137.327 28.9504 138.097 29.2891 138.743 29.9664C139.39 30.6129 139.713 31.3826 139.713 32.2754Z" fill="#12F7D6"/>
</svg>
